<svg width="64" height="64" viewBox="0 0 64 64" fill="none" xmlns="http://www.w3.org/2000/svg">
<rect x="64" y="64" width="64" height="64" rx="10" transform="rotate(-180 64 64)" fill="#39C660"/>
<g clip-path="url(#clip0)">
<path d="M42.539 35.1919L39.138 34.9966C38.3231 34.9482 37.5295 35.2763 36.9877 35.8829L34.6784 38.4684C30.8048 36.7606 27.5441 33.8661 25.4103 30.1904L27.7285 27.595C28.2703 26.9884 28.507 26.1629 28.3672 25.3587L27.7916 22.02C27.5557 20.6829 26.3687 19.7301 25.0132 19.8066L22.7164 19.9362C21.2103 20.0211 20.029 21.3437 20.2082 22.8445C21.5553 34.1663 31.1615 42.7463 42.5629 42.8111C44.0743 42.8203 45.2556 41.4977 45.1707 39.9916L45.041 37.6948C44.9745 36.3482 43.8941 35.276 42.539 35.1919V35.1919Z" fill="white"/>
</g>
<defs>
<clipPath id="clip0">
<rect width="32" height="32" fill="white" transform="translate(33.2747 54.5914) rotate(-138.23)"/>
</clipPath>
</defs>
</svg>
