<svg width="64" height="64" viewBox="0 0 64 64" fill="none" xmlns="http://www.w3.org/2000/svg">
<rect width="64" height="64" rx="16" fill="#FF5555"/>
<path d="M22.0134 36.64L24.68 34.52C25.32 34.0134 25.6934 33.24 25.6934 32.4267V28.96C29.72 27.6534 34.08 27.64 38.12 28.96V32.44C38.12 33.2534 38.4934 34.0267 39.1334 34.5334L41.7867 36.64C42.8534 37.48 44.3734 37.4 45.3334 36.44L46.96 34.8134C48.0267 33.7467 48.0267 31.9734 46.8934 30.9734C38.3467 23.4267 25.4667 23.4267 16.92 30.9734C15.7867 31.9734 15.7867 33.7467 16.8534 34.8134L18.48 36.44C19.4267 37.4 20.9467 37.48 22.0134 36.64Z" fill="white"/>
</svg>
