<svg width="64" height="64" viewBox="0 0 64 64" fill="none" xmlns="http://www.w3.org/2000/svg">
<path d="M32 37.3334C36.4267 37.3334 40 33.76 40 29.3334V13.3334C40 8.90671 36.4267 5.33337 32 5.33337C27.5733 5.33337 24 8.90671 24 13.3334V29.3334C24 33.76 27.5733 37.3334 32 37.3334ZM47.76 29.3334C46.4533 29.3334 45.36 30.2934 45.1467 31.6C44.0533 37.8667 38.5867 42.6667 32 42.6667C25.4133 42.6667 19.9467 37.8667 18.8533 31.6C18.64 30.2934 17.5467 29.3334 16.24 29.3334C14.6133 29.3334 13.3333 30.7734 13.5733 32.3734C14.88 40.3734 21.28 46.64 29.3333 47.7867V53.3334C29.3333 54.8 30.5333 56 32 56C33.4667 56 34.6667 54.8 34.6667 53.3334V47.7867C42.72 46.64 49.12 40.3734 50.4267 32.3734C50.6933 30.7734 49.3867 29.3334 47.76 29.3334Z" fill="white"/>
<line x1="12.9269" y1="6.16136" x2="50.9269" y2="48.1614" stroke="#DA2F47" stroke-width="2.5"/>
</svg>
