<svg width="485" height="485" viewBox="0 0 485 485" fill="none" xmlns="http://www.w3.org/2000/svg">
<path d="M242.5 40.4167C130.95 40.4167 40.4167 130.95 40.4167 242.5C40.4167 354.05 130.95 444.583 242.5 444.583C354.05 444.583 444.583 354.05 444.583 242.5C444.583 130.95 354.05 40.4167 242.5 40.4167ZM242.5 101.042C276.046 101.042 303.125 128.121 303.125 161.667C303.125 195.213 276.046 222.292 242.5 222.292C208.954 222.292 181.875 195.213 181.875 161.667C181.875 128.121 208.954 101.042 242.5 101.042ZM242.5 388C191.979 388 147.319 362.133 121.25 322.929C121.856 282.715 202.083 260.688 242.5 260.688C282.715 260.688 363.144 282.715 363.75 322.929C337.681 362.133 293.021 388 242.5 388Z" fill="#C4C4C4"/>
</svg>
