<svg width="41" height="41" viewBox="0 0 41 41" fill="none" xmlns="http://www.w3.org/2000/svg">
<path d="M41 41L0 41L0 0L41 0L41 41Z" fill="#39C660"/>
<g clip-path="url(#clip0)">
<path d="M27.2517 22.5448L25.0729 22.4198C24.5508 22.3887 24.0425 22.5989 23.6954 22.9875L22.216 24.6438C19.7344 23.5498 17.6456 21.6955 16.2786 19.3408L17.7637 17.6781C18.1108 17.2895 18.2624 16.7606 18.1729 16.2454L17.8041 14.1066C17.653 13.25 16.8926 12.6396 16.0242 12.6886L14.5528 12.7716C13.588 12.8261 12.8312 13.6734 12.946 14.6348C13.809 21.8878 19.9629 27.3844 27.267 27.4259C28.2352 27.4318 28.992 26.5845 28.9376 25.6196L28.8545 24.1482C28.8119 23.2856 28.1198 22.5987 27.2517 22.5448Z" fill="white"/>
</g>
<defs>
<clipPath id="clip0">
<rect width="20.5" height="20.5" fill="white" transform="translate(21.3167 34.9727) rotate(-138.23)"/>
</clipPath>
</defs>
</svg>
