<svg width="405" height="405" viewBox="0 0 405 405" fill="none" xmlns="http://www.w3.org/2000/svg">
<path d="M202.5 0.416748C90.9501 0.416748 0.416748 90.9501 0.416748 202.5C0.416748 314.05 90.9501 404.583 202.5 404.583C314.05 404.583 404.583 314.05 404.583 202.5C404.583 90.9501 314.05 0.416748 202.5 0.416748ZM202.5 61.0417C236.046 61.0417 263.125 88.1209 263.125 121.667C263.125 155.213 236.046 182.292 202.5 182.292C168.954 182.292 141.875 155.213 141.875 121.667C141.875 88.1209 168.954 61.0417 202.5 61.0417ZM202.5 348C151.979 348 107.319 322.133 81.2501 282.929C81.8563 242.715 162.083 220.688 202.5 220.688C242.715 220.688 323.144 242.715 323.75 282.929C297.681 322.133 253.021 348 202.5 348Z" fill="#C4C4C4"/>
</svg>
